Normalized EMG Linear Envelopes
nRows=257
nColumns=4

endheader
time	 med_gas_r	  soleus_r	 tib_ant_r	
3.95867	  0.006811	  0.005288	  0.001629	
3.99194	  0.006938	  0.005313	  0.001577	
4.0252	  0.007053	  0.005337	  0.001528	
4.05847	  0.007154	  0.005359	  0.001483	
4.09173	  0.007268	  0.005376	  0.001447	
4.125	  0.007432	  0.005391	  0.001423	
4.15827	  0.007678	  0.005404	  0.001417	
4.19153	  0.008019	  0.005414	  0.001427	
4.2248	  0.008451	  0.005423	  0.001447	
4.25806	  0.008961	  0.005426	  0.001469	
4.29133	  0.009514	  0.005418	  0.001490	
4.3246	  0.010048	  0.005392	  0.001505	
4.35786	  0.010479	  0.005345	  0.001519	
4.39113	  0.010732	  0.005275	  0.001533	
4.4244	  0.010778	  0.005184	  0.001553	
4.45766	  0.010641	  0.005076	  0.001581	
4.49093	  0.010381	  0.004968	  0.001619	
4.52419	  0.010059	  0.004897	  0.001663	
4.55746	  0.009714	  0.004934	  0.001708	
4.59073	  0.009357	  0.005172	  0.001742	
4.62399	  0.008983	  0.005708	  0.001757	
4.65726	  0.008587	  0.006641	  0.001750	
4.69052	  0.008192	  0.008082	  0.001723	
4.72379	  0.007843	  0.010160	  0.001684	
4.75706	  0.007583	  0.012953	  0.001646	
4.79032	  0.007424	  0.016319	  0.001620	
4.82359	  0.007338	  0.019749	  0.001612	
4.85685	  0.007271	  0.022426	  0.001622	
4.89012	  0.007184	  0.023581	  0.001650	
4.92339	  0.007067	  0.022931	  0.001691	
4.95665	  0.006935	  0.020874	  0.001740	
4.98992	  0.006809	  0.018253	  0.001787	
5.02319	  0.006702	  0.015881	  0.001823	
5.05645	  0.006613	  0.014168	  0.001842	
5.08972	  0.006546	  0.013049	  0.001840	
5.12298	  0.006502	  0.012183	  0.001821	
5.15625	  0.006485	  0.011234	  0.001789	
5.18952	  0.006484	  0.010067	  0.001752	
5.22278	  0.006481	  0.008762	  0.001718	
5.25605	  0.006465	  0.007505	  0.001691	
5.28931	  0.006442	  0.006457	  0.001670	
5.32258	  0.006446	  0.005681	  0.001653	
5.35585	  0.006523	  0.005159	  0.001635	
5.38911	  0.006702	  0.004842	  0.001617	
5.42238	  0.006968	  0.004680	  0.001597	
5.45565	  0.007264	  0.004632	  0.001579	
5.48891	  0.007523	  0.004657	  0.001563	
5.52218	  0.007697	  0.004717	  0.001553	
5.55544	  0.007780	  0.004784	  0.001548	
5.58871	  0.007787	  0.004847	  0.001550	
5.62198	  0.007744	  0.004914	  0.001561	
5.65524	  0.007682	  0.005002	  0.001578	
5.68851	  0.007647	  0.005126	  0.001599	
5.72177	  0.007697	  0.005282	  0.001622	
5.75504	  0.007869	  0.005456	  0.001643	
5.78831	  0.008147	  0.005627	  0.001659	
5.82157	  0.008455	  0.005783	  0.001668	
5.85484	  0.008685	  0.005920	  0.001668	
5.8881	  0.008749	  0.006029	  0.001657	
5.92137	  0.008615	  0.006093	  0.001632	
5.95464	  0.008316	  0.006090	  0.001591	
5.9879	  0.007928	  0.006001	  0.001539	
6.02117	  0.007537	  0.005827	  0.001486	
6.05444	  0.007213	  0.005591	  0.001443	
6.0877	  0.006994	  0.005336	  0.001422	
6.12097	  0.006886	  0.005110	  0.001430	
6.15423	  0.006869	  0.004950	  0.001470	
6.1875	  0.006912	  0.004869	  0.001537	
6.22077	  0.006982	  0.004855	  0.001623	
6.25403	  0.007061	  0.004879	  0.001714	
6.2873	  0.007156	  0.004909	  0.001795	
6.32056	  0.007286	  0.004923	  0.001851	
6.35383	  0.007475	  0.004910	  0.001869	
6.3871	  0.007729	  0.004872	  0.001838	
6.42036	  0.008030	  0.004815	  0.001745	
6.45363	  0.008329	  0.004749	  0.001569	
6.4869	  0.008558	  0.004687	  0.001287	
6.52016	  0.008657	  0.004657	  0.000873	
6.55343	  0.008616	  0.004708	  0.000307	
6.58669	  0.008472	  0.004904	 -0.000417	
6.61996	  0.008288	  0.005310	 -0.001274	
6.65323	  0.008103	  0.005984	 -0.002181	
6.68649	  0.007924	  0.006995	 -0.002958	
6.71976	  0.007750	  0.008441	 -0.003293	
6.75302	  0.007601	  0.010413	 -0.002737	
6.78629	  0.007531	  0.012899	 -0.000719	
6.81956	  0.007614	  0.015679	  0.003441	
6.85282	  0.007934	  0.018363	  0.010499	
6.88609	  0.008570	  0.020609	  0.021170	
6.91935	  0.009587	  0.022356	  0.035817	
6.95262	  0.011004	  0.023868	  0.054009	
6.98589	  0.012753	  0.025509	  0.074262	
7.01915	  0.014678	  0.027461	  0.094322	
7.05242	  0.016579	  0.029623	  0.112047	
7.08569	  0.018279	  0.031768	  0.126385	
7.11895	  0.019677	  0.033763	  0.137761	
7.15222	  0.020760	  0.035676	  0.147556	
7.18548	  0.021579	  0.037678	  0.157044	
7.21875	  0.022218	  0.039866	  0.166566	
7.25202	  0.022750	  0.042149	  0.175449	
7.28528	  0.023222	  0.044282	  0.182624	
7.31855	  0.023649	  0.046010	  0.187375	
7.35181	  0.024022	  0.047206	  0.189728	
7.38508	  0.024319	  0.047885	  0.190304	
7.41835	  0.024509	  0.048126	  0.189890	
7.45161	  0.024561	  0.047984	  0.189075	
7.48488	  0.024457	  0.047494	  0.188129	
7.51815	  0.024218	  0.046732	  0.187048	
7.55141	  0.023914	  0.045849	  0.185657	
7.58468	  0.023640	  0.045019	  0.183687	
7.61794	  0.023485	  0.044357	  0.180853	
7.65121	  0.023498	  0.043886	  0.176965	
7.68448	  0.023685	  0.043586	  0.172099	
7.71774	  0.024026	  0.043470	  0.166735	
7.75101	  0.024477	  0.043597	  0.161676	
7.78427	  0.024970	  0.044009	  0.157679	
7.81754	  0.025391	  0.044666	  0.155013	
7.85081	  0.025603	  0.045447	  0.153279	
7.88407	  0.025488	  0.046211	  0.151660	
7.91734	  0.025003	  0.046828	  0.149451	
7.9506	  0.024202	  0.047155	  0.146493	
7.98387	  0.023199	  0.047016	  0.143233	
8.01714	  0.022104	  0.046239	  0.140386	
8.0504	  0.020987	  0.044748	  0.138473	
8.08367	  0.019891	  0.042645	  0.137614	
8.11694	  0.018869	  0.040228	  0.137695	
8.1502	  0.018006	  0.037928	  0.138710	
8.18347	  0.017376	  0.036189	  0.140844	
8.21673	  0.017000	  0.035324	  0.144172	
8.25	  0.016843	  0.035412	  0.148303	
8.28327	  0.016856	  0.036308	  0.152391	
8.31653	  0.017025	  0.037746	  0.155559	
8.3498	  0.017372	  0.039495	  0.157315	
8.38306	  0.017917	  0.041460	  0.157608	
8.41633	  0.018646	  0.043693	  0.156600	
8.4496	  0.019503	  0.046257	  0.154509	
8.48286	  0.020399	  0.049035	  0.151711	
8.51613	  0.021224	  0.051612	  0.148938	
8.5494	  0.021867	  0.053370	  0.147233	
8.58266	  0.022256	  0.053813	  0.147569	
8.61593	  0.022399	  0.052874	  0.150326	
8.64919	  0.022382	  0.050954	  0.154999	
8.68246	  0.022310	  0.048636	  0.160355	
8.71573	  0.022242	  0.046343	  0.164927	
8.74899	  0.022152	  0.044206	  0.167554	
8.78226	  0.021971	  0.042197	  0.167676	
8.81552	  0.021638	  0.040316	  0.165378	
8.84879	  0.021161	  0.038665	  0.161290	
8.88206	  0.020610	  0.037384	  0.156407	
8.91532	  0.020082	  0.036558	  0.151810	
8.94859	  0.019645	  0.036161	  0.148313	
8.98185	  0.019318	  0.036042	  0.146201	
9.01512	  0.019076	  0.035965	  0.145215	
9.04839	  0.018891	  0.035716	  0.144795	
9.08165	  0.018751	  0.035205	  0.144403	
9.11492	  0.018659	  0.034536	  0.143752	
9.14819	  0.018612	  0.033962	  0.142863	
9.18145	  0.018590	  0.033755	  0.141974	
9.21472	  0.018553	  0.034069	  0.141382	
9.24798	  0.018467	  0.034856	  0.141301	
9.28125	  0.018326	  0.035887	  0.141729	
9.31452	  0.018168	  0.036854	  0.142406	
9.34778	  0.018056	  0.037492	  0.142897	
9.38105	  0.018053	  0.037677	  0.142862	
9.41431	  0.018196	  0.037453	  0.142373	
9.44758	  0.018484	  0.036987	  0.142001	
9.48085	  0.018881	  0.036467	  0.142577	
9.51411	  0.019323	  0.036014	  0.144757	
9.54738	  0.019725	  0.035669	  0.148703	
9.58065	  0.020008	  0.035429	  0.154065	
9.61391	  0.020117	  0.035295	  0.160216	
9.64718	  0.020043	  0.035264	  0.166491	
9.68044	  0.019828	  0.035320	  0.172303	
9.71371	  0.019551	  0.035450	  0.177108	
9.74698	  0.019300	  0.035693	  0.180369	
9.78024	  0.019133	  0.036139	  0.181600	
9.81351	  0.019059	  0.036861	  0.180478	
9.84677	  0.019044	  0.037813	  0.176976	
9.88004	  0.019035	  0.038801	  0.171455	
9.91331	  0.018994	  0.039576	  0.164633	
9.94657	  0.018919	  0.039964	  0.157409	
9.97984	  0.018834	  0.039950	  0.150634	
10.0131	  0.018772	  0.039652	  0.144993	
10.0464	  0.018763	  0.039230	  0.140986	
10.0796	  0.018822	  0.038801	  0.138900	
10.1129	  0.018945	  0.038401	  0.138676	
10.1462	  0.019100	  0.038002	  0.139841	
10.1794	  0.019246	  0.037558	  0.141720	
10.2127	  0.019355	  0.037063	  0.143823	
10.246	  0.019438	  0.036570	  0.146077	
10.2792	  0.019549	  0.036172	  0.148626	
10.3125	  0.019751	  0.035954	  0.151424	
10.3458	  0.020073	  0.035963	  0.154072	
10.379	  0.020481	  0.036197	  0.156082	
10.4123	  0.020878	  0.036608	  0.157273	
10.4456	  0.021143	  0.037099	  0.157880	
10.4788	  0.021181	  0.037538	  0.158271	
10.5121	  0.020958	  0.037815	  0.158572	
10.5454	  0.020515	  0.037898	  0.158537	
10.5786	  0.019950	  0.037841	  0.157747	
10.6119	  0.019382	  0.037730	  0.155960	
10.6452	  0.018900	  0.037614	  0.153336	
10.6784	  0.018543	  0.037502	  0.150382	
10.7117	  0.018300	  0.037388	  0.147711	
10.745	  0.018154	  0.037285	  0.145848	
10.7782	  0.018113	  0.037202	  0.145218	
10.8115	  0.018214	  0.037100	  0.146185	
10.8448	  0.018475	  0.036893	  0.148947	
10.878	  0.018860	  0.036496	  0.153325	
10.9113	  0.019285	  0.035918	  0.158650	
10.9446	  0.019656	  0.035309	  0.163858	
10.9778	  0.019904	  0.034914	  0.167742	
11.0111	  0.020009	  0.034961	  0.169241	
11.0444	  0.019983	  0.035538	  0.167691	
11.0776	  0.019859	  0.036546	  0.162991	
11.1109	  0.019659	  0.037754	  0.155586	
11.1442	  0.019387	  0.038895	  0.146176	
11.1774	  0.019017	  0.039718	  0.135245	
11.2107	  0.018520	  0.039986	  0.122764	
11.244	  0.017883	  0.039493	  0.108373	
11.2772	  0.017132	  0.038158	  0.091955	
11.3105	  0.016329	  0.036155	  0.074134	
11.3437	  0.015547	  0.033933	  0.056268	
11.377	  0.014837	  0.032035	  0.039953	
11.4103	  0.014216	  0.030813	  0.026400	
11.4435	  0.013674	  0.030200	  0.016106	
11.4768	  0.013208	  0.029708	  0.008927	
11.5101	  0.012821	  0.028682	  0.004352	
11.5433	  0.012520	  0.026689	  0.001771	
11.5766	  0.012300	  0.023804	  0.000607	
11.6099	  0.012129	  0.020586	  0.000363	
11.6431	  0.011954	  0.017810	  0.000632	
11.6764	  0.011714	  0.016111	  0.001111	
11.7097	  0.011359	  0.015751	  0.001601	
11.7429	  0.010869	  0.016530	  0.001996	
11.7762	  0.010258	  0.017833	  0.002260	
11.8095	  0.009574	  0.018848	  0.002399	
11.8427	  0.008886	  0.018896	  0.002435	
11.876	  0.008269	  0.017732	  0.002399	
11.9093	  0.007785	  0.015616	  0.002324	
11.9425	  0.007461	  0.013090	  0.002237	
11.9758	  0.007279	  0.010669	  0.002159	
12.0091	  0.007187	  0.008647	  0.002098	
12.0423	  0.007127	  0.007105	  0.002054	
12.0756	  0.007066	  0.006016	  0.002021	
12.1089	  0.006999	  0.005327	  0.001996	
12.1421	  0.006947	  0.004975	  0.001976	
12.1754	  0.006924	  0.004888	  0.001956	
12.2087	  0.006931	  0.004983	  0.001935	
12.2419	  0.006952	  0.005185	  0.001911	
12.2752	  0.006978	  0.005433	  0.001888	
12.3085	  0.007013	  0.005680	  0.001871	
12.3417	  0.007087	  0.005884	  0.001863	
12.375	  0.007225	  0.006014	  0.001861	
12.4083	  0.007437	  0.006049	  0.001860	
12.4415	  0.007705	  0.005995	  0.001856	
12.4748	  0.008002	  0.005876	  0.001850	
